# xmcd
#
# Track frame offsets:
#	150
#	18805
#	37494
#	52585
#	68215
#	82675
#	99617
#	115348
#	134105
#	149764
#	169235
#	187894
#	208730
#	223287
#	241776
#	258032
#	273527
#	292195
#	309860
#	326534
#
# Disc length: 4592 seconds
#
# Revision: 0
# Processed by: cddbd v1.5.2PL0 Copyright (c) Steve Scherf et al.
# Submitted via: audiograbber 1.83.01
#
DISCID=2f11ee14
DTITLE=Various Artist - Radioactive Urban Radio - July 2013
DYEAR=2013
DGENRE=Hip Hop
TTITLE0=Wale Fat. Sam Drew - Love Hate Thing
TTITLE1=Yo Gotti Feat. Jeezy and YG - Act Right
TTITLE2=Ludacris - Helluva Night
TTITLE3=Bubble Butt (Remix) - Bubble Butt (Remix)
TTITLE4=Major Lazer Feat. Bruno Mars, 2 Chainz, Tyga and Mystic - Slip N Slide
TTITLE5=Dorrough Music - After Party
TTITLE6=Bridget Kelly Feat. Kendrick Lamar - Street Dreamin
TTITLE7=Mario Feat. Nicki Minaj - Somebody Else
TTITLE8=Kid Ink - Money And The Power
TTITLE9=Mighty Mystic - Concert World
TTITLE10=Goodie Mob Feat. Janelle Monae - Special Education
TTITLE11=J. Cole Feat. TLC - Crooked Smile
TTITLE12=Jay Sean Feat. Rick Ross - Mars
TTITLE13=DJ Drama Feat. Jeezy, Yo Gotti and Juicy J - 4 What
TTITLE14=Waka Flocka Feat. T.I. - 50K (Remix)
TTITLE15=Future Feat. Rocko - Chosen One
TTITLE16=2 Chainz Feat. Pharrell - Feds Watching
TTITLE17=Alicia Keys Feat. Maxwell - Fire We Make
TTITLE18=Young Dro - FDB
TTITLE19=Wale Feat. Rihanna - Bad (Remix)
EXTD=
EXTT0=
EXTT1=
EXTT2=
EXTT3=
EXTT4=
EXTT5=
EXTT6=
EXTT7=
EXTT8=
EXTT9=
EXTT10=
EXTT11=
EXTT12=
EXTT13=
EXTT14=
EXTT15=
EXTT16=
EXTT17=
EXTT18=
EXTT19=
PLAYORDER=
